<?xml version="1.0" standalone="no"?>
<!DOCTYPE svg PUBLIC "-//W3C//DTD SVG 20010904//EN"
 "http://www.w3.org/TR/2001/REC-SVG-20010904/DTD/svg10.dtd">
<svg version="1.0" xmlns="http://www.w3.org/2000/svg"
 width="630.000000pt" height="313.000000pt" viewBox="0 0 630.000000 313.000000"
 preserveAspectRatio="xMidYMid meet">

<g transform="translate(0.000000,313.000000) scale(0.100000,-0.100000)"
fill="#000000" stroke="none">
<path d="M2535 3040 c-8 -13 2 -90 22 -160 46 -167 155 -286 356 -387 79 -39
91 -49 107 -86 35 -78 43 -164 47 -497 2 -179 3 -331 3 -338 0 -8 9 -12 23
-10 22 3 22 3 28 253 6 250 12 294 49 378 23 52 41 67 160 128 171 88 282 229
314 397 l14 72 -54 0 c-29 0 -87 -11 -129 -24 -190 -60 -317 -208 -349 -406
-7 -47 -16 -78 -18 -70 -8 21 -26 161 -34 255 -3 44 -15 107 -25 141 -39 125
-143 245 -264 304 -99 49 -234 76 -250 50z m134 -65 c89 -21 151 -58 221 -131
78 -81 119 -167 129 -269 4 -41 5 -75 3 -75 -2 0 -48 23 -102 51 -128 65 -223
152 -272 246 -30 57 -58 146 -58 183 0 13 3 13 79 -5z m917 -277 c-4 -18 -20
-62 -36 -97 -43 -92 -130 -172 -263 -242 -58 -31 -108 -55 -110 -53 -2 2 0 29
4 59 14 106 81 212 181 287 51 39 150 76 202 77 27 1 28 -1 22 -31z"/>
<path d="M3150 1126 c-137 -40 -216 -126 -227 -246 -8 -80 16 -146 73 -203 51
-52 106 -81 248 -132 125 -44 192 -82 231 -129 27 -34 30 -45 30 -109 0 -87
-21 -123 -93 -159 -38 -18 -63 -23 -128 -23 -71 1 -89 5 -147 33 -45 22 -82
51 -117 89 l-50 57 -35 -34 c-19 -19 -35 -39 -35 -46 0 -7 23 -33 50 -58 85
-76 212 -112 365 -103 217 12 358 132 358 306 0 86 -25 141 -92 204 -56 52
-109 81 -236 127 -179 65 -255 116 -273 183 -20 73 13 139 92 179 32 16 54 19
120 16 97 -4 160 -31 221 -94 l41 -41 39 34 c32 28 37 37 29 51 -14 22 -108
79 -154 93 -55 17 -258 21 -310 5z"/>
<path d="M100 600 l0 -520 50 0 51 0 -3 430 c-2 237 -1 430 2 430 6 0 58 -94
256 -462 87 -164 164 -298 169 -298 6 0 97 178 204 395 107 217 198 395 203
395 4 0 8 -200 8 -445 l0 -445 90 0 90 0 0 520 0 520 -111 0 -110 0 -51 -107
c-143 -306 -270 -569 -277 -576 -4 -4 -84 148 -179 338 l-172 345 -110 0 -110
0 0 -520z"/>
<path d="M1672 722 l3 -397 33 -68 c58 -117 171 -182 341 -196 203 -17 367 43
446 162 61 92 65 128 65 534 l0 363 -50 0 -50 0 0 -375 c0 -349 -1 -378 -20
-427 -42 -112 -148 -181 -280 -182 -148 0 -253 66 -299 187 -20 55 -21 74 -21
427 l0 370 -85 0 -86 0 3 -398z"/>
<path d="M4050 600 l0 -521 81 3 81 3 -1 248 -1 247 285 0 285 0 0 -250 0
-250 85 0 85 0 0 520 0 520 -85 0 -85 0 0 -225 0 -225 -283 0 -283 0 -2 113
c0 61 -1 163 -1 225 l-1 112 -80 0 -80 0 0 -520z"/>
<path d="M5360 600 l0 -520 85 0 85 0 0 270 c0 149 2 270 5 270 7 0 0 8 265
-295 l215 -245 118 0 118 0 -107 123 c-305 347 -419 479 -422 486 -3 8 142
140 361 329 l117 102 -66 0 -67 0 -66 -62 c-101 -96 -402 -372 -438 -403 l-33
-27 0 246 0 246 -85 0 -85 0 0 -520z"/>
</g>
</svg>
